<mxfile host="app.diagrams.net" modified="2023-09-30T18:45:49.778Z" agent="Mozilla/5.0 (Windows NT 10.0; Win64; x64) AppleWebKit/537.36 (KHTML, like Gecko) Chrome/117.0.0.0 Safari/537.36" etag="L5bAjgEn3r-bapeeFIf2" version="22.0.0" type="github">
  <diagram name="PÃ¡gina-1" id="l44WWCweRcnQ4CUnHUWf">
    <mxGraphModel dx="808" dy="823" grid="1" gridSize="10" guides="1" tooltips="1" connect="1" arrows="1" fold="1" page="1" pageScale="1" pageWidth="827" pageHeight="1169" math="0" shadow="0">
      <root>
        <mxCell id="0" />
        <mxCell id="1" parent="0" />
        <mxCell id="c_ocnvRZBa51fsiQRDce-1" value="" style="fontColor=#0066CC;verticalAlign=top;verticalLabelPosition=bottom;labelPosition=center;align=center;html=1;outlineConnect=0;fillColor=#CCCCCC;strokeColor=#6881B3;gradientColor=none;gradientDirection=north;strokeWidth=2;shape=mxgraph.networks.pc;" vertex="1" parent="1">
          <mxGeometry x="80" y="440" width="110" height="70" as="geometry" />
        </mxCell>
        <mxCell id="c_ocnvRZBa51fsiQRDce-2" value="" style="fontColor=#0066CC;verticalAlign=top;verticalLabelPosition=bottom;labelPosition=center;align=center;html=1;outlineConnect=0;fillColor=#CCCCCC;strokeColor=#6881B3;gradientColor=none;gradientDirection=north;strokeWidth=2;shape=mxgraph.networks.pc;" vertex="1" parent="1">
          <mxGeometry x="640" y="440" width="100" height="70" as="geometry" />
        </mxCell>
        <mxCell id="c_ocnvRZBa51fsiQRDce-3" value="" style="image;html=1;image=img/lib/clip_art/networking/Firewall_128x128.png" vertex="1" parent="1">
          <mxGeometry x="660" y="120" width="80" height="80" as="geometry" />
        </mxCell>
        <mxCell id="c_ocnvRZBa51fsiQRDce-4" value="" style="image;html=1;image=img/lib/clip_art/networking/Firewall_128x128.png" vertex="1" parent="1">
          <mxGeometry x="95" y="120" width="80" height="80" as="geometry" />
        </mxCell>
        <mxCell id="c_ocnvRZBa51fsiQRDce-11" value="PC1&lt;br&gt;192.168.56.102/24" style="text;html=1;strokeColor=none;fillColor=none;align=center;verticalAlign=middle;whiteSpace=wrap;rounded=0;" vertex="1" parent="1">
          <mxGeometry x="80" y="520" width="120" height="30" as="geometry" />
        </mxCell>
        <mxCell id="c_ocnvRZBa51fsiQRDce-13" value="" style="image;aspect=fixed;perimeter=ellipsePerimeter;html=1;align=center;shadow=0;dashed=0;spacingTop=3;image=img/lib/active_directory/internet_cloud.svg;" vertex="1" parent="1">
          <mxGeometry x="85.32" y="260" width="109.37" height="68.9" as="geometry" />
        </mxCell>
        <mxCell id="c_ocnvRZBa51fsiQRDce-14" value="" style="image;aspect=fixed;perimeter=ellipsePerimeter;html=1;align=center;shadow=0;dashed=0;spacingTop=3;image=img/lib/active_directory/internet_cloud.svg;" vertex="1" parent="1">
          <mxGeometry x="645.3199999999999" y="260" width="109.37" height="68.9" as="geometry" />
        </mxCell>
        <mxCell id="c_ocnvRZBa51fsiQRDce-17" value="192.168.66.1/24" style="text;html=1;strokeColor=none;fillColor=none;align=center;verticalAlign=middle;whiteSpace=wrap;rounded=0;" vertex="1" parent="1">
          <mxGeometry x="640" y="80" width="120" height="30" as="geometry" />
        </mxCell>
        <mxCell id="c_ocnvRZBa51fsiQRDce-18" value="PC1&lt;br&gt;192.168.66.102/24" style="text;html=1;strokeColor=none;fillColor=none;align=center;verticalAlign=middle;whiteSpace=wrap;rounded=0;" vertex="1" parent="1">
          <mxGeometry x="634.69" y="520" width="120" height="30" as="geometry" />
        </mxCell>
        <mxCell id="c_ocnvRZBa51fsiQRDce-19" value="" style="endArrow=classic;html=1;rounded=0;strokeColor=none;" edge="1" parent="1">
          <mxGeometry width="50" height="50" relative="1" as="geometry">
            <mxPoint x="140" y="430" as="sourcePoint" />
            <mxPoint x="140" y="340" as="targetPoint" />
          </mxGeometry>
        </mxCell>
        <mxCell id="c_ocnvRZBa51fsiQRDce-20" value="" style="endArrow=none;html=1;rounded=0;" edge="1" parent="1">
          <mxGeometry width="50" height="50" relative="1" as="geometry">
            <mxPoint x="140" y="430" as="sourcePoint" />
            <mxPoint x="140" y="340" as="targetPoint" />
          </mxGeometry>
        </mxCell>
        <mxCell id="c_ocnvRZBa51fsiQRDce-21" value="" style="endArrow=none;html=1;rounded=0;entryX=0.5;entryY=1;entryDx=0;entryDy=0;" edge="1" parent="1" target="c_ocnvRZBa51fsiQRDce-4">
          <mxGeometry width="50" height="50" relative="1" as="geometry">
            <mxPoint x="135" y="250" as="sourcePoint" />
            <mxPoint x="450" y="380" as="targetPoint" />
          </mxGeometry>
        </mxCell>
        <mxCell id="c_ocnvRZBa51fsiQRDce-22" value="" style="image;aspect=fixed;perimeter=ellipsePerimeter;html=1;align=center;shadow=0;dashed=0;spacingTop=3;image=img/lib/active_directory/internet_cloud.svg;" vertex="1" parent="1">
          <mxGeometry x="359" y="125.55000000000001" width="109.37" height="68.9" as="geometry" />
        </mxCell>
        <mxCell id="c_ocnvRZBa51fsiQRDce-24" value="" style="endArrow=none;html=1;rounded=0;" edge="1" parent="1">
          <mxGeometry width="50" height="50" relative="1" as="geometry">
            <mxPoint x="699.75" y="440" as="sourcePoint" />
            <mxPoint x="700.25" y="340" as="targetPoint" />
            <Array as="points">
              <mxPoint x="700.06" y="390" />
            </Array>
          </mxGeometry>
        </mxCell>
        <mxCell id="c_ocnvRZBa51fsiQRDce-25" value="" style="endArrow=none;html=1;rounded=0;entryX=0.5;entryY=1;entryDx=0;entryDy=0;" edge="1" parent="1">
          <mxGeometry width="50" height="50" relative="1" as="geometry">
            <mxPoint x="699.66" y="250" as="sourcePoint" />
            <mxPoint x="699.66" y="200" as="targetPoint" />
          </mxGeometry>
        </mxCell>
        <mxCell id="c_ocnvRZBa51fsiQRDce-27" value="&lt;font style=&quot;font-size: 13px;&quot;&gt;Intranet 2&lt;/font&gt;" style="strokeWidth=1;shadow=0;dashed=0;align=center;html=1;shape=mxgraph.mockup.text.callout;linkText=;textSize=17;textColor=#666666;callDir=SW;callStyle=line;fontSize=17;fontColor=#666666;align=left;verticalAlign=bottom;strokeColor=#666666;" vertex="1" parent="1">
          <mxGeometry x="500" y="300" width="200" height="100" as="geometry" />
        </mxCell>
        <mxCell id="c_ocnvRZBa51fsiQRDce-28" value="Virtual Box" style="text;html=1;align=center;verticalAlign=middle;resizable=0;points=[];autosize=1;strokeColor=none;fillColor=none;" vertex="1" parent="1">
          <mxGeometry x="490" y="350" width="80" height="30" as="geometry" />
        </mxCell>
        <mxCell id="c_ocnvRZBa51fsiQRDce-29" value="&lt;font style=&quot;font-size: 14px;&quot;&gt;Intranet 1&lt;/font&gt;" style="strokeWidth=1;shadow=0;dashed=0;align=center;html=1;shape=mxgraph.mockup.text.callout;linkText=;textSize=17;textColor=#666666;callDir=SE;callStyle=line;fontSize=17;fontColor=#666666;align=right;verticalAlign=bottom;strokeColor=#666666;" vertex="1" parent="1">
          <mxGeometry x="140" y="300" width="200" height="100" as="geometry" />
        </mxCell>
        <mxCell id="c_ocnvRZBa51fsiQRDce-31" value="Virtual Box" style="text;html=1;align=center;verticalAlign=middle;resizable=0;points=[];autosize=1;strokeColor=none;fillColor=none;" vertex="1" parent="1">
          <mxGeometry x="270" y="350" width="80" height="30" as="geometry" />
        </mxCell>
        <mxCell id="c_ocnvRZBa51fsiQRDce-33" value="192.168.56.0/24" style="swimlane;whiteSpace=wrap;html=1;" vertex="1" parent="1">
          <mxGeometry x="240" y="310" width="119" height="130" as="geometry">
            <mxRectangle x="240" y="310" width="130" height="30" as="alternateBounds" />
          </mxGeometry>
        </mxCell>
        <mxCell id="c_ocnvRZBa51fsiQRDce-43" value="192.168.66.0/24" style="swimlane;whiteSpace=wrap;html=1;" vertex="1" parent="1">
          <mxGeometry x="470.5" y="309.45" width="119" height="130" as="geometry">
            <mxRectangle x="240" y="310" width="130" height="30" as="alternateBounds" />
          </mxGeometry>
        </mxCell>
        <mxCell id="c_ocnvRZBa51fsiQRDce-44" value="" style="endArrow=none;html=1;rounded=0;exitX=1;exitY=0.5;exitDx=0;exitDy=0;" edge="1" parent="1" source="c_ocnvRZBa51fsiQRDce-4">
          <mxGeometry width="50" height="50" relative="1" as="geometry">
            <mxPoint x="230" y="185" as="sourcePoint" />
            <mxPoint x="340" y="160" as="targetPoint" />
          </mxGeometry>
        </mxCell>
        <mxCell id="c_ocnvRZBa51fsiQRDce-45" value="" style="endArrow=none;html=1;rounded=0;exitX=1;exitY=0.5;exitDx=0;exitDy=0;" edge="1" parent="1">
          <mxGeometry width="50" height="50" relative="1" as="geometry">
            <mxPoint x="490" y="159.5" as="sourcePoint" />
            <mxPoint x="655" y="159.5" as="targetPoint" />
          </mxGeometry>
        </mxCell>
        <mxCell id="c_ocnvRZBa51fsiQRDce-47" value="LAN:192.168.56.1/24&lt;br&gt;WAN: 10.0.2.7/24" style="shape=callout;whiteSpace=wrap;html=1;perimeter=calloutPerimeter;" vertex="1" parent="1">
          <mxGeometry x="70" y="55" width="120" height="80" as="geometry" />
        </mxCell>
        <mxCell id="c_ocnvRZBa51fsiQRDce-48" value="LAN:192.168.66.1/24&lt;br&gt;WAN:10.0.2.9/24" style="shape=callout;whiteSpace=wrap;html=1;perimeter=calloutPerimeter;" vertex="1" parent="1">
          <mxGeometry x="634.69" y="55" width="120" height="80" as="geometry" />
        </mxCell>
        <mxCell id="c_ocnvRZBa51fsiQRDce-50" value="10.0.2.0/24" style="text;html=1;strokeColor=none;fillColor=none;align=center;verticalAlign=middle;whiteSpace=wrap;rounded=0;" vertex="1" parent="1">
          <mxGeometry x="353.69" y="80" width="120" height="30" as="geometry" />
        </mxCell>
        <mxCell id="c_ocnvRZBa51fsiQRDce-51" value="Windows 10" style="text;html=1;strokeColor=none;fillColor=none;align=center;verticalAlign=middle;whiteSpace=wrap;rounded=0;" vertex="1" parent="1">
          <mxGeometry x="80" y="550" width="120" height="30" as="geometry" />
        </mxCell>
        <mxCell id="c_ocnvRZBa51fsiQRDce-52" value="Windows 10" style="text;html=1;strokeColor=none;fillColor=none;align=center;verticalAlign=middle;whiteSpace=wrap;rounded=0;" vertex="1" parent="1">
          <mxGeometry x="640" y="550" width="120" height="30" as="geometry" />
        </mxCell>
        <mxCell id="c_ocnvRZBa51fsiQRDce-53" value="" style="shape=flexArrow;endArrow=none;startArrow=none;html=1;rounded=0;endSize=6;targetPerimeterSpacing=0;sourcePerimeterSpacing=0;endFill=0;startFill=0;" edge="1" parent="1">
          <mxGeometry width="100" height="100" relative="1" as="geometry">
            <mxPoint x="313.69" y="120" as="sourcePoint" />
            <mxPoint x="513.69" y="120" as="targetPoint" />
            <Array as="points">
              <mxPoint x="413.69" y="110" />
            </Array>
          </mxGeometry>
        </mxCell>
      </root>
    </mxGraphModel>
  </diagram>
</mxfile>
